<svg xmlns="http://www.w3.org/2000/svg" viewBox="0 0 32 32">
  <defs>
    <linearGradient id="lcg" x1="0" y1="0" x2="1" y2="1">
      <stop offset="0" stop-color="#6cf09e"/>
      <stop offset="1" stop-color="#128c7e"/>
    </linearGradient>
  </defs>
  <path d="M16 2c7.732 0 14 6.044 14 13.5 0 7.456-6.268 13.5-14 13.5-2.32 0-4.51-.546-6.45-1.515L2 30l2.7-7.087C3.038 20.704 2 18.214 2 15.5 2 8.044 8.268 2 16 2Z" fill="url(#lcg)"/>
  <path d="M11 11.5c0-.83.67-1.5 1.5-1.5h.9c.4 0 .76.24.92.61l.95 2.27a1 1 0 0 1-.23 1.13l-.78.78a.6.6 0 0 0-.13.68 7.5 7.5 0 0 0 3.4 3.4.6.6 0 0 0 .68-.13l.78-.78a1 1 0 0 1 1.13-.23l2.27.95c.37.16.61.52.61.92v.9c0 .83-.67 1.5-1.5 1.5h-.5c-5.247 0-9.5-4.253-9.5-9.5v-.5Z" fill="#042311"/>
</svg>
